<svg width="30" height="30" viewBox="0 0 30 30" fill="none" xmlns="http://www.w3.org/2000/svg">
<path d="M29.9338 16.4029H0.0678711V16.4032H29.9338V16.4029Z" fill="#C42126"/>
<path d="M28.3767 8.21444H1.62305V8.21468H28.3767V8.21444Z" fill="#C42126"/>
<path d="M29.44 10.9435H0.55957V10.9437H29.44V10.9435Z" fill="#C42126"/>
<path d="M6.44724 27.3198H23.5535L23.5544 27.3189H6.44629L6.44724 27.3198Z" fill="#C42126"/>
<path d="M15.0001 0C14.7055 0 14.4132 0.0106401 14.123 0.0272337H15.8773C15.587 0.0106401 15.2947 0 15.0001 0Z" fill="#C42126"/>
<path d="M29.9374 13.6732H0.0620117V13.6735H29.9374V13.6732Z" fill="#C42126"/>
<path d="M19.4336 5.48534H26.5962C25.7454 4.44964 24.7566 3.53281 23.6612 2.75665H18.2827C18.7278 3.53965 19.1105 4.46357 19.4336 5.48534Z" fill="#E7E7E7"/>
<path d="M18.2827 2.75662H23.6612C21.4377 1.18093 18.7683 0.194186 15.8774 0.0272369H15.4155C16.7762 0.198493 17.4012 1.20551 18.2827 2.75662Z" fill="#DC3027"/>
<path d="M29.4409 10.9438C29.1742 9.99266 28.8166 9.08008 28.377 8.21513H20.1367C20.3037 9.09123 20.4354 10.0063 20.5329 10.9438H29.4409Z" fill="#E7E7E7"/>
<path d="M19.6731 8.21462H28.3766C27.8807 7.23908 27.2848 6.32365 26.5961 5.48549H18.9932C19.2613 6.3341 19.4889 7.24953 19.6731 8.21462Z" fill="#DC3027"/>
<path d="M20.8481 16.4023H29.9322C29.9754 15.9407 29.9998 15.4729 29.9998 15.0002C29.9998 14.5528 29.9763 14.1111 29.9379 13.6734H20.8503C20.8799 14.581 20.8794 15.4952 20.8481 16.4023Z" fill="#E7E7E7"/>
<path d="M29.9386 13.673C29.8564 12.7358 29.6876 11.824 29.441 10.9443H20.1504C20.2437 11.8379 20.3053 12.7521 20.3354 13.673H29.9386Z" fill="#DC3027"/>
<path d="M19.98 21.8608H28.3377C28.7834 20.9968 29.1467 20.0835 29.4191 19.1316H20.3841C20.2846 20.0705 20.1495 20.9854 19.98 21.8608Z" fill="#E7E7E7"/>
<path d="M29.4191 19.1315C29.6708 18.2521 29.8456 17.3403 29.9325 16.4028H20.5651C20.5332 17.3244 20.4697 18.2383 20.3745 19.1315H29.4191Z" fill="#DC3027"/>
<path d="M23.5544 27.3189C24.6656 26.5459 25.6684 25.6281 26.5327 24.5902H19.4949C19.1659 25.6162 18.7754 26.5387 18.3223 27.3189H23.5544Z" fill="#E7E7E7"/>
<path d="M19.23 24.5901H26.5326C27.2294 23.7528 27.8343 22.8374 28.3375 21.8609H19.9185C19.7317 22.8267 19.5017 23.7426 19.23 24.5901Z" fill="#DC3027"/>
<path d="M14.4562 29.9894C14.4258 29.9884 14.3956 29.987 14.3652 29.9861C14.3956 29.987 14.4259 29.9884 14.4562 29.9894Z" fill="#DC3027"/>
<path d="M15 30C18.1801 30 21.1266 29.0074 23.5534 27.3199H18.1247C17.1612 28.9799 16.5255 30 15 30Z" fill="#DC3027"/>
<path d="M15.0001 29.9999C14.8179 29.9999 14.637 29.9957 14.4565 29.9893C14.6389 29.9954 14.82 29.9999 15.0001 29.9999Z" fill="#C42126"/>
<path d="M18.7795 2.75665H6.33952C5.2439 3.53281 4.25532 4.44957 3.4043 5.48534H19.93C19.607 4.46357 19.2245 3.53965 18.7795 2.75665Z" fill="#F3F4F5"/>
<path d="M6.33936 2.75662H18.7793C17.8975 1.20551 16.7761 0.198493 15.4154 0.0272369H14.123C11.2321 0.194186 8.56258 1.18093 6.33936 2.75662Z" fill="#E73625"/>
<path d="M0.55957 10.9438H21.0058C20.9082 10.0062 20.7765 9.09123 20.6096 8.21513H1.62346C1.18386 9.08014 0.826271 9.99266 0.55957 10.9438Z" fill="#F3F4F5"/>
<path d="M3.40435 5.48526C2.7161 6.32342 2.11974 7.23879 1.62402 8.21439H20.6099C20.4258 7.24949 20.1983 6.33412 19.9301 5.48526H3.40435Z" fill="#E73625"/>
<path d="M0 15.0002C0 15.4729 0.024637 15.9407 0.0675143 16.4023H21.1889C21.2202 15.4952 21.2207 14.5812 21.1911 13.6736H0.0618143C0.0234337 14.1111 0 14.5528 0 15.0002Z" fill="#F3F4F5"/>
<path d="M0.0620117 13.673H21.191C21.1609 12.7519 21.0991 11.838 21.006 10.9443H0.559376C0.312816 11.8241 0.143966 12.7358 0.0620117 13.673Z" fill="#E73625"/>
<path d="M20.9984 19.1315H0.581055C0.853455 20.0836 1.21699 20.9966 1.66249 21.8606H20.5943C20.7639 20.9855 20.8986 20.0706 20.9984 19.1315Z" fill="#F3F4F5"/>
<path d="M0.581322 19.1315H20.9987C21.0937 18.2383 21.1573 17.3241 21.1893 16.4028H0.0678711C0.154766 17.3404 0.329822 18.2521 0.581322 19.1315Z" fill="#E73625"/>
<path d="M6.44607 27.3189H18.7335C19.1866 26.5385 19.5774 25.6162 19.9061 24.5902H3.46777C4.33203 25.6281 5.33455 26.5459 6.44607 27.3189Z" fill="#F3F4F5"/>
<path d="M1.66309 21.8608C2.1664 22.8373 2.77125 23.7527 3.46805 24.5899H19.9064C20.1779 23.7425 20.4078 22.8267 20.5947 21.8608H1.66309Z" fill="#E73625"/>
<path d="M14.3656 29.9859C14.396 29.9869 14.4262 29.9883 14.4566 29.9892C14.6371 29.9956 14.818 29.9999 15.0001 29.9999C16.5257 29.9999 17.7695 28.9798 18.7332 27.3198H6.44727C8.71128 28.8944 11.4288 29.8635 14.3656 29.9859Z" fill="#E73625"/>
<path d="M14.6899 0.00778198C7.00325 0.164154 0.738222 6.09914 0.0639648 13.6485H14.6902V0.00778198H14.6899Z" fill="#283991"/>
<path d="M3.00167 8.49859L3.23018 9.20223H3.97055L3.3716 9.63734L3.60037 10.3415L3.00167 9.90613L2.40316 10.3415L2.63148 9.63734L2.03271 9.20223H2.77309L3.00167 8.49859Z" fill="#EFEFEF"/>
<path d="M3.00167 10.9845L3.23018 11.6886H3.97055L3.3716 12.1237L3.60037 12.8279L3.00167 12.3925L2.40316 12.8279L2.63148 12.1237L2.03271 11.6886H2.77309L3.00167 10.9845Z" fill="#EFEFEF"/>
<path d="M5.48776 4.76877L5.71633 5.47267H6.45646L5.85769 5.90803L6.08627 6.61167L5.48776 6.17682L4.889 6.61167L5.11757 5.90803L4.51855 5.47267H5.25893L5.48776 4.76877Z" fill="#EFEFEF"/>
<path d="M5.48776 7.25515L5.71633 7.95904H6.45646L5.85769 8.39389L6.08627 9.09804L5.48776 8.66319L4.889 9.09804L5.11757 8.39389L4.51855 7.95904H5.25893L5.48776 7.25515Z" fill="#EFEFEF"/>
<path d="M5.48776 9.74152L5.71633 10.4457H6.45646L5.85769 10.8803L6.08627 11.5844L5.48776 11.1491L4.889 11.5844L5.11757 10.8803L4.51855 10.4457H5.25893L5.48776 9.74152Z" fill="#EFEFEF"/>
<path d="M1.11378 11.5844L0.885015 10.8803L1.48378 10.4454H0.743843L0.72725 10.3941C0.645992 10.6454 0.572587 10.8997 0.504883 11.1569L0.515333 11.1491L1.11378 11.5844Z" fill="#EFEFEF"/>
<path d="M2.40313 7.85511L3.00164 7.41982L3.60041 7.85511L3.37164 7.15096L3.97041 6.71567H3.23003L3.00145 6.01202L2.77288 6.71567H2.50004C2.44937 6.79243 2.40035 6.86963 2.35107 6.94753L2.63152 7.15096L2.40313 7.85511Z" fill="#EFEFEF"/>
<path d="M5.48794 3.69044L6.08645 4.1253L5.85788 3.42165L6.45639 2.98636H6.02888C5.66578 3.25781 5.31548 3.54509 4.97892 3.84821L4.88867 4.1253L5.48794 3.69044Z" fill="#EFEFEF"/>
<path d="M7.37549 2.88237L7.97425 2.44707L8.57276 2.88237L8.34419 2.17822L8.9427 1.74336H8.20257L8.17154 1.64862C7.92073 1.77674 7.67253 1.91006 7.42996 2.05193L7.60381 2.17815L7.37549 2.88237Z" fill="#EFEFEF"/>
<path d="M7.97402 3.52584L8.2026 4.22929H8.94272L8.34396 4.66459L8.57253 5.36874L7.97402 4.93338L7.37526 5.36874L7.60384 4.66459L7.00488 4.22929H7.7452L7.97402 3.52584Z" fill="#EFEFEF"/>
<path d="M7.97402 6.01221L8.2026 6.71567H8.94272L8.34396 7.15096L8.57253 7.85511L7.97402 7.41975L7.37526 7.85511L7.60384 7.15096L7.00488 6.71567H7.7452L7.97402 6.01221Z" fill="#EFEFEF"/>
<path d="M7.97402 8.49859L8.2026 9.20223H8.94272L8.34396 9.63734L8.57253 10.3415L7.97402 9.90613L7.37526 10.3415L7.60384 9.63734L7.00488 9.20223H7.7452L7.97402 8.49859Z" fill="#EFEFEF"/>
<path d="M7.97402 10.9845L8.2026 11.6886H8.94272L8.34396 12.1237L8.57253 12.8279L7.97402 12.3925L7.37526 12.8279L7.60384 12.1237L7.00488 11.6886H7.7452L7.97402 10.9845Z" fill="#EFEFEF"/>
<path d="M10.4604 2.2824L10.6889 2.9863H11.4291L10.8305 3.42166L11.0589 4.1253L10.4604 3.69045L9.8614 4.1253L10.0902 3.42166L9.49121 2.9863H10.2315L10.4604 2.2824Z" fill="#EFEFEF"/>
<path d="M10.4604 4.76877L10.6889 5.47267H11.4291L10.8305 5.90803L11.0589 6.61167L10.4604 6.17682L9.8614 6.61167L10.0902 5.90803L9.49121 5.47267H10.2315L10.4604 4.76877Z" fill="#EFEFEF"/>
<path d="M10.4604 7.25515L10.6889 7.95904H11.4291L10.8305 8.39389L11.0589 9.09804L10.4604 8.66319L9.8614 9.09804L10.0902 8.39389L9.49121 7.95904H10.2315L10.4604 7.25515Z" fill="#EFEFEF"/>
<path d="M10.4604 9.74152L10.6889 10.4457H11.4291L10.8305 10.8803L11.0589 11.5844L10.4604 11.1491L9.8614 11.5844L10.0902 10.8803L9.49121 10.4457H10.2315L10.4604 9.74152Z" fill="#EFEFEF"/>
<path d="M12.9472 1.03947L13.1757 1.74336H13.9159L13.3171 2.17822L13.5457 2.88236L12.9472 2.44701L12.3482 2.88236L12.577 2.17822L11.978 1.74336H12.7182L12.9472 1.03947Z" fill="#EFEFEF"/>
<path d="M12.9472 3.52584L13.1757 4.22929H13.9159L13.3171 4.66459L13.5457 5.36874L12.9472 4.93338L12.3482 5.36874L12.577 4.66459L11.978 4.22929H12.7182L12.9472 3.52584Z" fill="#EFEFEF"/>
<path d="M12.9472 6.01221L13.1757 6.71567H13.9159L13.3171 7.15096L13.5457 7.85511L12.9472 7.41975L12.3482 7.85511L12.577 7.15096L11.978 6.71567H12.7182L12.9472 6.01221Z" fill="#EFEFEF"/>
<path d="M12.9472 8.49859L13.1757 9.20223H13.9159L13.3171 9.63734L13.5457 10.3415L12.9472 9.90613L12.3482 10.3415L12.577 9.63734L11.978 9.20223H12.7182L12.9472 8.49859Z" fill="#EFEFEF"/>
<path d="M12.9472 10.9845L13.1757 11.6886H13.9159L13.3171 12.1237L13.5457 12.8279L12.9472 12.3925L12.3482 12.8279L12.577 12.1237L11.978 11.6886H12.7182L12.9472 10.9845Z" fill="#EFEFEF"/>
</svg>
