<svg width="30" height="30" viewBox="0 0 30 30" fill="none" xmlns="http://www.w3.org/2000/svg">
<path d="M0 15.0001C0 20.4328 2.88825 25.1906 7.21296 27.8229V2.17724C2.88825 4.80901 0 9.56716 0 15.0001Z" fill="#F3F4F5"/>
<path d="M15 0C15 0 20.5695 20.4387 20.7995 20.6687C22.3162 20.5328 23.8013 19.9111 25.0008 18.7915C25.9641 17.8922 26.6199 16.7862 26.9654 15.6077C26.8775 17.7868 25.966 19.9338 24.2455 21.5394C23.0647 22.6416 21.655 23.3457 20.1818 23.6588L15 29.9997C23.2844 29.9997 30.0001 23.2841 30.0001 15.0001C30.0001 6.71516 23.2845 0 15 0Z" fill="#036535"/>
<path d="M14.5143 29.9915C14.4782 29.9905 14.4418 29.9886 14.4058 29.9872C14.442 29.9889 14.4781 29.9905 14.5143 29.9915Z" fill="#036535"/>
<path d="M14.4058 0.0125529C14.4418 0.0111021 14.4782 0.00971429 14.5143 0.00876808C14.478 0.00971429 14.442 0.0111021 14.4058 0.0125529Z" fill="#036535"/>
<path d="M24.2453 21.5393C25.966 19.9337 26.8773 17.7867 26.9652 15.6076C26.6197 16.7863 25.9639 17.8921 25.0006 18.7914C23.801 19.911 22.3161 20.5327 20.7993 20.6686C20.6395 21.7169 20.4341 22.7225 20.1816 23.6588C21.6548 23.3457 23.0644 22.6415 24.2453 21.5393Z" fill="#F3F4F5"/>
<path d="M14.5142 0.00876817C14.6755 0.00378482 14.8373 0 14.9997 0C14.8386 0 14.6769 0.00378482 14.5142 0.00876817Z" fill="#263778"/>
<path d="M14.9997 29.9997C14.8372 29.9997 14.6755 29.9964 14.5142 29.9915C14.6769 29.9967 14.8386 29.9997 14.9997 29.9997Z" fill="#263778"/>
<path d="M20.1813 23.6588C17.3312 24.2649 14.2428 23.4054 12.1101 21.1196C8.87455 17.6527 9.06215 12.22 12.5288 8.98479C14.2492 7.37901 16.4537 6.61757 18.6334 6.68008C17.4335 6.94319 16.2853 7.52113 15.3218 8.42041C12.4579 11.0932 12.3031 15.5815 14.9758 18.4454C16.5288 20.1093 18.6947 20.8569 20.799 20.6687C22.1414 11.8624 20.2091 0 14.9995 0C14.837 0 14.6753 0.00378482 14.514 0.00876817C14.478 0.00971437 14.4415 0.0111652 14.4055 0.012553C11.7784 0.115122 9.32431 0.892398 7.21289 2.17728V27.823C9.32431 29.1076 11.7783 29.8851 14.4055 29.9874C14.4415 29.9888 14.478 29.9908 14.514 29.9917C14.6753 29.9967 14.837 30 14.9995 30C17.4541 29.9997 19.1814 27.3658 20.1813 23.6588Z" fill="#0C723E"/>
<path d="M14.9764 18.4454C12.3036 15.5815 12.4585 11.0931 15.3224 8.42036C16.2858 7.52109 17.434 6.94321 18.6339 6.68004C16.4542 6.61753 14.2495 7.37897 12.5293 8.98474C9.06242 12.22 8.87482 17.6527 12.1103 21.1196C14.2431 23.4051 17.3315 24.2646 20.1816 23.6587C20.4341 22.7225 20.6396 21.7169 20.7993 20.6686C18.6952 20.8569 16.5291 20.1095 14.9764 18.4454Z" fill="#F3F4F5"/>
<path d="M22.3564 8.66007L23.5925 10.0709L25.3167 9.33131L24.3563 10.943L25.5928 12.3543L23.763 11.9394L22.8028 13.5509L22.6318 11.6831L20.8027 11.2677L22.5269 10.5281L22.3564 8.66007Z" fill="#F3F4F5"/>
</svg>
