<svg width="16" height="16" viewBox="0 0 16 16" fill="none" xmlns="http://www.w3.org/2000/svg">
<path d="M10.4061 4.68754C10.1161 4.68726 9.838 4.57192 9.63291 4.36683C9.42782 4.16174 9.31248 3.88366 9.3122 3.59362V0H3.71871C3.26305 0.000560466 2.82622 0.181818 2.50402 0.504018C2.18182 0.826217 2.00056 1.26305 2 1.71871V14.2813C2.00056 14.7369 2.18182 15.1738 2.50402 15.496C2.82622 15.8182 3.26305 15.9994 3.71871 16H12.4685C12.9241 15.9994 13.361 15.8182 13.6832 15.496C14.0054 15.1738 14.1866 14.7369 14.1872 14.2813V4.68754H10.4061ZM4.56271 11.25H6.83527C6.95961 11.25 7.07887 11.2994 7.1668 11.3873C7.25472 11.4752 7.30412 11.5945 7.30412 11.7188C7.30412 11.8432 7.25472 11.9624 7.1668 12.0504C7.07887 12.1383 6.95961 12.1877 6.83527 12.1877H4.56271C4.43836 12.1877 4.31911 12.1383 4.23118 12.0504C4.14325 11.9624 4.09385 11.8432 4.09385 11.7188C4.09385 11.5945 4.14325 11.4752 4.23118 11.3873C4.31911 11.2994 4.43836 11.25 4.56271 11.25ZM4.09412 9.21887C4.09412 9.0946 4.14349 8.97541 4.23136 8.88753C4.31924 8.79965 4.43843 8.75028 4.56271 8.75028H11.4376C11.5619 8.75028 11.6812 8.79968 11.7691 8.88761C11.857 8.97553 11.9064 9.09479 11.9064 9.21914C11.9064 9.34349 11.857 9.46275 11.7691 9.55067C11.6812 9.6386 11.5619 9.688 11.4376 9.688H4.56271C4.50108 9.68807 4.44005 9.67598 4.3831 9.65243C4.32615 9.62888 4.27441 9.59433 4.23083 9.55075C4.18726 9.50718 4.1527 9.45543 4.12915 9.39848C4.1056 9.34154 4.09405 9.2805 4.09412 9.21887ZM11.4376 6.24793C11.5619 6.24793 11.6812 6.29733 11.7691 6.38526C11.857 6.47319 11.9064 6.59244 11.9064 6.71679C11.9064 6.84114 11.857 6.9604 11.7691 7.04832C11.6812 7.13625 11.5619 7.18565 11.4376 7.18565H4.56271C4.43836 7.18565 4.31911 7.13625 4.23118 7.04832C4.14325 6.9604 4.09385 6.84114 4.09385 6.71679C4.09385 6.59244 4.14325 6.47319 4.23118 6.38526C4.31911 6.29733 4.43836 6.24793 4.56271 6.24793H11.4376Z" fill="#037BFC"/>
<path d="M10.2499 3.59363C10.2499 3.63576 10.2666 3.67617 10.2964 3.70596C10.3262 3.73574 10.3666 3.75248 10.4087 3.75248H13.9812C13.895 3.59304 13.784 3.44828 13.6524 3.3236L10.6364 0.470198C10.5209 0.360844 10.3909 0.268009 10.2499 0.194336V3.59363Z" fill="#037BFC"/>
</svg>
