<svg width="16" height="16" viewBox="0 0 16 16" fill="none" xmlns="http://www.w3.org/2000/svg">
<path d="M8 16C3.5625 16 0 12.4375 0 8C0 3.59375 3.5625 0 8 0C12.4062 0 16 3.59375 16 8C16 12.4375 12.4062 16 8 16ZM4.03125 10.25C4.4375 11.0312 5.75 12.5 8 12.5C10.2188 12.5 11.5312 11.0312 11.9375 10.25L11.0312 9.7812C10.75 10.3438 9.75 11.5312 8 11.5312C6.21875 11.5312 5.21875 10.3438 4.9375 9.7812L4.03125 10.25ZM6.5 6.5C6.5 5.96875 6.0625 5.5 5.5 5.5C4.9375 5.5 4.5 5.96875 4.5 6.5C4.5 7.0625 4.9375 7.5 5.5 7.5C6.0625 7.5 6.5 7.0625 6.5 6.5ZM10.5 7.5C11.0625 7.5 11.5 7.0625 11.5 6.5C11.5 5.96875 11.0625 5.5 10.5 5.5C9.9375 5.5 9.5 5.96875 9.5 6.5C9.5 7.0625 9.9375 7.5 10.5 7.5Z" fill="#A5A5A5"/>
</svg>
