<svg width="16" height="16" viewBox="0 0 16 16" fill="none" xmlns="http://www.w3.org/2000/svg">
<path d="M15.5862 10.6904L10.8673 2.19241C10.5838 1.67966 10.1681 1.25225 9.6634 0.954614C9.15872 0.65698 8.58351 0.5 7.9976 0.5C7.41169 0.5 6.83648 0.65698 6.3318 0.954614C5.82711 1.25225 5.41139 1.67966 5.12787 2.19241L0.412164 10.6904C0.135 11.1897 -0.00698414 11.7527 0.000264249 12.3237C0.00751264 12.8947 0.163742 13.4539 0.45349 13.946C0.743239 14.438 1.15646 14.8459 1.65226 15.1292C2.14806 15.4125 2.70926 15.5615 3.2803 15.5613H12.7181C13.2893 15.5618 13.8507 15.413 14.3467 15.1298C14.8427 14.8466 15.2562 14.4388 15.5461 13.9466C15.836 13.4545 15.9924 12.8952 15.9997 12.3241C16.007 11.753 15.8651 11.1898 15.5878 10.6904H15.5862ZM12.7181 14.1552H3.2803C2.95408 14.1552 2.63351 14.0701 2.35025 13.9083C2.067 13.7465 1.83087 13.5136 1.6652 13.2326C1.49953 12.9515 1.41005 12.6322 1.40561 12.306C1.40117 11.9798 1.48192 11.6581 1.63988 11.3727L6.35878 2.87465C6.52121 2.58222 6.75888 2.33856 7.04718 2.16891C7.33547 1.99925 7.66389 1.90979 7.9984 1.90979C8.33291 1.90979 8.66133 1.99925 8.94962 2.16891C9.23792 2.33856 9.47559 2.58222 9.63802 2.87465L14.3569 11.3727C14.5148 11.658 14.5956 11.9795 14.5912 12.3056C14.5868 12.6316 14.4975 12.9509 14.332 13.2319C14.1665 13.5128 13.9306 13.7458 13.6476 13.9077C13.3646 14.0697 13.0442 14.155 12.7181 14.1552Z" fill="#037BFC"/>
<path d="M8.82301 3.32975C8.74189 3.18306 8.62296 3.06079 8.47857 2.97564C8.33418 2.89049 8.16963 2.84558 8.002 2.84558C7.83438 2.84558 7.66981 2.89049 7.52543 2.97564C7.38104 3.06079 7.26211 3.18306 7.18099 3.32975L2.46209 11.8278C2.38364 11.9705 2.34369 12.1312 2.3462 12.2941C2.3487 12.4569 2.39356 12.6163 2.47636 12.7566C2.55916 12.8969 2.67705 13.0132 2.81844 13.094C2.95982 13.1749 3.11982 13.2176 3.2827 13.2179H12.7205C12.8835 13.2177 13.0436 13.1751 13.1851 13.0943C13.3265 13.0135 13.4445 12.8972 13.5274 12.7569C13.6103 12.6167 13.6553 12.4572 13.6578 12.2943C13.6603 12.1314 13.6204 11.9706 13.5419 11.8278L8.82301 3.32975ZM8.47029 11.8078H7.53371V10.8744H8.4711L8.47029 11.8078ZM8.47029 9.93381H7.53371V5.6884H8.4711L8.47029 9.93381Z" fill="#037BFC"/>
</svg>
